<svg width="16" height="16" viewBox="0 0 16 16" fill="none" xmlns="http://www.w3.org/2000/svg">
<path d="M10.6668 4.66667H10.1668C10.1668 5.86328 9.19678 6.83333 8.00016 6.83333V7.33333V7.83333C9.74906 7.83333 11.1668 6.41557 11.1668 4.66667H10.6668ZM8.00016 7.33333V6.83333C6.80355 6.83333 5.8335 5.86328 5.8335 4.66667H5.3335H4.8335C4.8335 6.41557 6.25126 7.83333 8.00016 7.83333V7.33333ZM5.3335 4.66667H5.8335C5.8335 3.47005 6.80355 2.5 8.00016 2.5V2V1.5C6.25126 1.5 4.8335 2.91776 4.8335 4.66667H5.3335ZM8.00016 2V2.5C9.19678 2.5 10.1668 3.47005 10.1668 4.66667H10.6668H11.1668C11.1668 2.91776 9.74906 1.5 8.00016 1.5V2ZM12.6668 11.6667H12.1668C12.1668 12.0196 11.8677 12.4737 11.0764 12.8694C10.3149 13.2501 9.22804 13.5 8.00016 13.5V14V14.5C9.34962 14.5 10.596 14.2276 11.5236 13.7638C12.4213 13.315 13.1668 12.6024 13.1668 11.6667H12.6668ZM8.00016 14V13.5C6.77229 13.5 5.68538 13.2501 4.92394 12.8694C4.13259 12.4737 3.8335 12.0196 3.8335 11.6667H3.3335H2.8335C2.8335 12.6024 3.57907 13.315 4.47672 13.7638C5.40428 14.2276 6.65071 14.5 8.00016 14.5V14ZM3.3335 11.6667H3.8335C3.8335 11.3137 4.13259 10.8596 4.92394 10.464C5.68538 10.0832 6.77229 9.83333 8.00016 9.83333V9.33333V8.83333C6.65071 8.83333 5.40428 9.10576 4.47672 9.56954C3.57907 10.0184 2.8335 10.7309 2.8335 11.6667H3.3335ZM8.00016 9.33333V9.83333C9.22804 9.83333 10.3149 10.0832 11.0764 10.464C11.8677 10.8596 12.1668 11.3137 12.1668 11.6667H12.6668H13.1668C13.1668 10.7309 12.4213 10.0184 11.5236 9.56954C10.596 9.10576 9.34962 8.83333 8.00016 8.83333V9.33333Z" fill="white"/>
</svg>
