<svg width="44" height="44" viewBox="0 0 44 44" fill="none" xmlns="http://www.w3.org/2000/svg">
<path d="M0 22C0 9.84974 9.84974 0 22 0C34.1503 0 44 9.84974 44 22C44 34.1503 34.1503 44 22 44C9.84974 44 0 34.1503 0 22Z" fill="white"/>
<path d="M30.8429 23.0857C30.3892 24.8092 28.2456 26.0271 23.9579 28.463C19.8132 30.8177 17.7408 31.9951 16.0707 31.5218C15.3803 31.3261 14.7512 30.9546 14.2438 30.4427C13.0166 29.2045 13.0166 26.803 13.0166 22C13.0166 17.197 13.0166 14.7955 14.2438 13.5574C14.7512 13.0455 15.3803 12.6739 16.0707 12.4782C17.7408 12.005 19.8132 13.1823 23.9579 15.537C28.2456 17.9729 30.3892 19.1908 30.8429 20.9143C31.0301 21.6258 31.0301 22.3742 30.8429 23.0857Z" stroke="#FA1432" stroke-width="1.75" stroke-linejoin="round"/>
</svg>
